<svg height="32" width="32" xmlns="http://www.w3.org/2000/svg"><g fill="none" fill-rule="evenodd" id="Icons new Arranged Names Color" stroke="none" stroke-width="1"><g fill="#FAFF00" id="55 Sun"><path d="M16 9c-.556 0-1-.452-1-1.01V6.01a1 1 0 1 1 2 0v1.98A1 1 0 0 1 16 9Zm7.78 14.784a1.002 1.002 0 0 1-1.42-.007l-1.401-1.401a1 1 0 1 1 1.414-1.414l1.4 1.4a1 1 0 0 1 .007 1.422ZM16 20a4 4 0 1 0 0-8 4 4 0 0 0 0 8Zm0 7.006c-.556 0-1-.452-1-1.009v-1.981a1 1 0 1 1 2 0v1.981a1 1 0 0 1-1 1.01Zm4.952-15.955a1.002 1.002 0 0 1 .007-1.42l1.4-1.402a1 1 0 1 1 1.415 1.415l-1.401 1.4a1 1 0 0 1-1.421.007Zm-9.904 9.904a1.002 1.002 0 0 1-.007 1.421l-1.4 1.401a1 1 0 1 1-1.415-1.414l1.401-1.401a1 1 0 0 1 1.421-.007ZM16 22a6 6 0 1 1 0-12 6 6 0 0 1 0 12ZM4.997 16.003c0-.556.452-1 1.01-1h1.98a1 1 0 1 1 0 2h-1.98a1 1 0 0 1-1.01-1Zm18.006 0c0-.556.452-1 1.01-1h1.98a1 1 0 1 1 0 2h-1.98a1 1 0 0 1-1.01-1ZM8.22 8.223a1.002 1.002 0 0 1 1.42.006l1.401 1.401a1 1 0 1 1-1.414 1.415l-1.4-1.401a1 1 0 0 1-.007-1.421Zm0 0" id="Oval 13"/></g></g></svg>