<svg xmlns="http://www.w3.org/2000/svg" aria-hidden="true" style="width:0;height:0;position:absolute;overflow:hidden"><defs><symbol id="icon-logo" viewBox="0 0 32 32"><path fill="none" style="stroke:currentColor" stroke-linejoin="round" stroke-linecap="round" stroke-width="2.667" d="M26.427 2.667H5.574a2.907 2.907 0 0 0-2.907 2.907v20.853a2.907 2.907 0 0 0 2.907 2.907v0h20.853a2.907 2.907 0 0 0 2.907-2.907v0V5.574a2.907 2.907 0 0 0-2.907-2.907v0zm-17.094 0v26.667M22.667 2.667v26.667M2.667 16h26.667M2.667 9.333h6.667M2.667 22.667h6.667m13.333 0h6.667M22.667 9.333h6.667"/></symbol><symbol id="icon-search" viewBox="0 0 28 28"><path fill="none" style="stroke:currentColor" stroke-linejoin="round" stroke-linecap="round" stroke-width="2.667" d="M14.667 25.333c5.891 0 10.667-4.776 10.667-10.667S20.558 3.999 14.667 3.999v0C8.776 3.999 4 8.775 4 14.666s4.776 10.667 10.667 10.667v0zM28 28l-5.8-5.8"/></symbol><symbol id="icon-google-icon_min" viewBox="0 0 32 32"><path d="M16.317 13.713v5.488h9.075c-.369 2.356-2.744 6.9-9.075 6.9-5.462 0-9.918-4.524-9.918-10.1s4.456-10.1 9.918-10.1c3.106 0 5.188 1.326 6.376 2.468l4.344-4.182c-2.787-2.611-6.4-4.188-10.718-4.188C7.475-.001.318 7.155.318 16s7.156 16.001 16.001 16.001c9.232 0 15.363-6.494 15.363-15.633 0-1.05-.112-1.85-.25-2.65l-15.115-.005z"/></symbol><symbol id="icon-log_out" viewBox="0 0 32 32"><path d="M22.288 7.491V2.205c0-.842-.688-1.533-1.533-1.533H1.853C1.011.672.32 1.36.32 2.205v21.661c0 .563.333 1.098.816 1.354l11.648 6.029a.772.772 0 0 0 1.123-.691v-5.875h6.845c.842 0 1.533-.688 1.533-1.533v-8.378h-3.066v6.08a.751.751 0 0 1-.765.765h-4.522V8.615c0-.563-.333-1.098-.816-1.354l-6.87-3.523h12.208c.435 0 .765.333.765.765v3.014h3.066v-.026z"/><path d="M26.221 4.989 31.2 9.968c.64.64.64 1.584 0 2.221l-4.979 4.982c-.64.64-1.61.666-2.246.026-.614-.614-.538-1.635.051-2.246l2.246-2.221h-8.71c-.435 0-.867-.179-1.149-.512-.714-.765-.538-2.122.384-2.63.23-.128.512-.205.765-.205h8.71s-2.221-2.221-2.246-2.221c-.589-.589-.666-1.635-.051-2.221.611-.618 1.606-.592 2.246.048z"/></symbol></defs></svg>