<svg xmlns="http://www.w3.org/2000/svg" aria-hidden="true" style="width:0;height:0;position:absolute;overflow:hidden"><defs><symbol id="icon-logo" viewBox="0 0 32 32"><path fill="none" style="stroke:currentColor" stroke-linejoin="round" stroke-linecap="round" stroke-width="2.667" d="M26.427 2.667H5.574a2.907 2.907 0 0 0-2.907 2.907v20.853a2.907 2.907 0 0 0 2.907 2.907v0h20.853a2.907 2.907 0 0 0 2.907-2.907v0V5.574a2.907 2.907 0 0 0-2.907-2.907v0zm-17.094 0v26.667M22.667 2.667v26.667M2.667 16h26.667M2.667 9.333h6.667M2.667 22.667h6.667m13.333 0h6.667M22.667 9.333h6.667"/></symbol><symbol id="icon-search" viewBox="0 0 28 28"><path fill="none" style="stroke:currentColor" stroke-linejoin="round" stroke-linecap="round" stroke-width="2.667" d="M14.667 25.333c5.891 0 10.667-4.776 10.667-10.667S20.558 3.999 14.667 3.999v0C8.776 3.999 4 8.775 4 14.666s4.776 10.667 10.667 10.667v0zM28 28l-5.8-5.8"/></symbol><symbol id="icon-google-icon_min" viewBox="0 0 32 32"><path d="M16.317 13.713v5.488h9.075c-.369 2.356-2.744 6.9-9.075 6.9-5.462 0-9.918-4.524-9.918-10.1s4.456-10.1 9.918-10.1c3.106 0 5.188 1.326 6.376 2.468l4.344-4.182c-2.787-2.611-6.4-4.188-10.718-4.188C7.475-.001.318 7.155.318 16s7.156 16.001 16.001 16.001c9.232 0 15.363-6.494 15.363-15.633 0-1.05-.112-1.85-.25-2.65l-15.115-.005z"/></symbol><symbol id="icon-log_out" viewBox="0 0 32 32"><path d="M22.288 7.491V2.205c0-.842-.688-1.533-1.533-1.533H1.853C1.011.672.32 1.36.32 2.205v21.661c0 .563.333 1.098.816 1.354l11.648 6.029a.772.772 0 0 0 1.123-.691v-5.875h6.845c.842 0 1.533-.688 1.533-1.533v-8.378h-3.066v6.08a.751.751 0 0 1-.765.765h-4.522V8.615c0-.563-.333-1.098-.816-1.354l-6.87-3.523h12.208c.435 0 .765.333.765.765v3.014h3.066v-.026z"/><path d="M26.221 4.989 31.2 9.968c.64.64.64 1.584 0 2.221l-4.979 4.982c-.64.64-1.61.666-2.246.026-.614-.614-.538-1.635.051-2.246l2.246-2.221h-8.71c-.435 0-.867-.179-1.149-.512-.714-.765-.538-2.122.384-2.63.23-.128.512-.205.765-.205h8.71s-2.221-2.221-2.246-2.221c-.589-.589-.666-1.635-.051-2.221.611-.618 1.606-.592 2.246.048z"/></symbol><symbol id="icon-github" viewBox="0 0 32 32"><path d="M16 .396c-8.84 0-16 7.164-16 16 0 7.071 4.584 13.067 10.94 15.18.8.151 1.093-.344 1.093-.769 0-.38-.013-1.387-.02-2.72-4.451.965-5.389-2.147-5.389-2.147-.728-1.847-1.78-2.34-1.78-2.34-1.449-.992.112-.972.112-.972 1.607.112 2.451 1.648 2.451 1.648 1.427 2.447 3.745 1.74 4.66 1.331.144-1.035.556-1.74 1.013-2.14-3.553-.4-7.288-1.776-7.288-7.907 0-1.747.62-3.173 1.647-4.293-.18-.404-.72-2.031.14-4.235 0 0 1.34-.429 4.4 1.64 1.28-.356 2.64-.532 4-.54 1.36.008 2.72.184 4 .54 3.04-2.069 4.38-1.64 4.38-1.64.86 2.204.32 3.831.16 4.235 1.02 1.12 1.64 2.547 1.64 4.293 0 6.147-3.74 7.5-7.3 7.893.56.48 1.08 1.461 1.08 2.96 0 2.141-.02 3.861-.02 4.381 0 .42.28.92 1.1.76C27.42 29.455 32 23.455 32 16.395c0-8.836-7.164-16-16-16z"/></symbol><symbol id="icon-linkedin" viewBox="0 0 32 32"><path d="M31.992 32H32V20.262c0-5.741-1.237-10.163-7.947-10.163-3.227 0-5.392 1.77-6.277 3.45h-.093v-2.914h-6.365v21.363h6.627V21.42c0-2.786.528-5.48 3.978-5.48 3.398 0 3.448 3.179 3.448 5.658V32h6.621zM.528 10.635h6.635V32H.528V10.635zM3.843 0A3.843 3.843 0 0 0 0 3.843c0 2.12 1.722 3.878 3.843 3.878 2.12 0 3.842-1.757 3.842-3.878S5.965.002 3.844 0z"/></symbol><symbol id="icon-close" viewBox="0 0 32 32"><path d="m26.667 7.303-1.97-1.97-7.808 7.808-7.808-7.808-1.97 1.97 7.808 7.808-7.808 7.808 1.97 1.97 7.808-7.808 7.808 7.808 1.97-1.97-7.808-7.808 7.808-7.808z"/></symbol><symbol id="icon-favorite" viewBox="0 0 32 32"><path fill="#FF6B08" style="fill:var(--color1,#ff6b08)" d="m16 30.144-2.24-2.218C5.44 20.639 0 15.728 0 9.708 0 4.797 3.84.995 8.8.995c2.72 0 5.44 1.267 7.2 3.327C17.76 2.263 20.48.995 23.2.995c4.96 0 8.8 3.802 8.8 8.713 0 6.02-5.44 10.931-13.76 18.218L16 30.144z"/></symbol><symbol id="icon-facebook" viewBox="0 0 32 32"><path d="M21.329 5.313h2.921V.225C23.746.156 22.013 0 19.994 0c-4.212 0-7.097 2.649-7.097 7.519V12H8.249v5.688h4.648V32h5.699V17.689h4.46l.708-5.688h-5.169V8.082c.001-1.644.444-2.769 2.735-2.769z"/></symbol><symbol id="icon-btn-circle-up" viewBox="0 0 32 32"><path d="M0 16c0 8.837 7.163 16 16 16s16-7.163 16-16S24.837 0 16 0 0 7.163 0 16zm29 0c0 7.18-5.82 13-13 13S3 23.18 3 16 8.82 3 16 3s13 5.82 13 13z"/><path d="m22.086 20.914 2.829-2.829-8.914-8.914-8.914 8.914 2.828 2.828 6.086-6.086z"/></symbol><symbol id="icon-sun_icon_min" viewBox="0 0 32 32"><path fill="#faff00" style="fill:var(--color1,#faff00)" d="M16 9c-.556 0-1-.452-1-1.01V6.01a1 1 0 0 1 2 0V8a1 1 0 0 1-1 1zm7.78 14.784a.999.999 0 0 1-1.419-.007l-1.401-1.401a1 1 0 1 1 1.414-1.414l1.4 1.4a1 1 0 0 1 .007 1.422zM16 20a4 4 0 0 0 0-8 4 4 0 0 0 0 8zm0 7.006c-.556 0-1-.452-1-1.009v-1.981a1 1 0 0 1 2 0v1.991a1 1 0 0 1-1 1zm4.952-15.955a1 1 0 0 1 .007-1.42l1.4-1.402a1 1 0 0 1 1.415 1.415l-1.401 1.4a.998.998 0 0 1-1.421.007zm-9.904 9.904a1 1 0 0 1-.007 1.421l-1.4 1.401a1 1 0 0 1-1.414-1.414l1.401-1.401a.998.998 0 0 1 1.421-.007zM16 22a6 6 0 1 1 0-12 6 6 0 1 1 0 12zM4.997 16.003c0-.556.452-1 1.01-1h1.98a1 1 0 0 1 0 2h-1.99a1 1 0 0 1-1-1zm18.006 0c0-.556.452-1 1.01-1h1.98a1 1 0 0 1 0 2h-1.99a1 1 0 0 1-1-1zM8.22 8.223a1 1 0 0 1 1.42.006l1.401 1.401a1 1 0 0 1-1.414 1.414l-1.4-1.401a.998.998 0 0 1-.007-1.421z"/></symbol><symbol id="icon-moon_icon_min" viewBox="0 0 32 32"><path fill="#faff00" style="fill:var(--color2,##faff00)" d="M21.976 16.76c-.39 2.971-2.906 5.241-5.953 5.241a6.001 6.001 0 1 1 .759-11.954l-.03-.003a4.5 4.5 0 0 0 5.254 6.707l-.032.01z"/></symbol><symbol id="icon-login_min" viewBox="0 0 32 32"><path d="M13.333 23v-4.333H4v-5.333h9.333V9.001l7 7-7 7zM10.667 2.667h12a2.667 2.667 0 0 1 2.667 2.667v21.333a2.667 2.667 0 0 1-2.667 2.667h-12A2.667 2.667 0 0 1 8 26.667v-5.333h2.667v5.333h12V5.334h-12v5.333H8V5.334a2.667 2.667 0 0 1 2.667-2.667z"/></symbol></defs></svg>