<svg aria-hidden="true" style="position: absolute; width: 0; height: 0; overflow: hidden;" version="1.1" xmlns="http://www.w3.org/2000/svg" xmlns:xlink="http://www.w3.org/1999/xlink">
<defs>
<symbol id="icon-next" viewBox="0 0 9 28">
<path d="M9.297 15c0 0.125-0.063 0.266-0.156 0.359l-7.281 7.281c-0.094 0.094-0.234 0.156-0.359 0.156s-0.266-0.063-0.359-0.156l-0.781-0.781c-0.094-0.094-0.156-0.219-0.156-0.359 0-0.125 0.063-0.266 0.156-0.359l6.141-6.141-6.141-6.141c-0.094-0.094-0.156-0.234-0.156-0.359s0.063-0.266 0.156-0.359l0.781-0.781c0.094-0.094 0.234-0.156 0.359-0.156s0.266 0.063 0.359 0.156l7.281 7.281c0.094 0.094 0.156 0.234 0.156 0.359z"></path>
</symbol>
<symbol id="icon-last" viewBox="0 0 16 28">
<path d="M9.297 15c-0.005 0.141-0.064 0.267-0.156 0.36l-7.282 7.28c-0.093 0.094-0.234 0.157-0.359 0.157s-0.266-0.063-0.36-0.156l-0.78-0.782c-0.094-0.093-0.157-0.234-0.157-0.359s0.063-0.266 0.156-0.36l6.141-6.14-6.14-6.14c-0.095-0.095-0.158-0.236-0.158-0.36s0.063-0.266 0.156-0.36l0.782-0.78c0.093-0.094 0.234-0.157 0.359-0.157s0.266 0.063 0.36 0.156l7.28 7.282c0.092 0.092 0.151 0.218 0.157 0.358l0 0.001zM15.297 15c-0.005 0.141-0.064 0.267-0.156 0.36l-7.282 7.28c-0.093 0.094-0.234 0.157-0.359 0.157s-0.266-0.063-0.36-0.156l-0.78-0.782c-0.094-0.093-0.157-0.234-0.157-0.359s0.063-0.266 0.156-0.36l6.141-6.14-6.14-6.14c-0.094-0.094-0.157-0.235-0.157-0.36s0.063-0.266 0.156-0.36l0.782-0.78c0.093-0.094 0.234-0.157 0.359-0.157s0.266 0.063 0.36 0.156l7.28 7.282c0.092 0.092 0.151 0.218 0.157 0.358l0 0.001z"></path>
</symbol>
</defs>
</svg>
