<svg xmlns="http://www.w3.org/2000/svg" aria-hidden="true" style="position:absolute;width:0;height:0;overflow:hidden">
  <defs>
  
    <symbol id="icon-logo" viewBox="0 0 32 32">
        <path fill="none" style="stroke: currentColor" stroke-linejoin="round" stroke-linecap="round" stroke-miterlimit="4" stroke-width="2.6667" d="M26.427 2.667h-20.853c-1.605 0-2.907 1.301-2.907 2.907v0 20.853c0 1.605 1.301 2.907 2.907 2.907v0h20.853c1.605 0 2.907-1.301 2.907-2.907v0-20.853c0-1.605-1.301-2.907-2.907-2.907v0zM9.333 2.667v26.667M22.667 2.667v26.667M2.667 16h26.667M2.667 9.333h6.667M2.667 22.667h6.667M22.667 22.667h6.667M22.667 9.333h6.667"></path>
    </symbol>
    <symbol id="icon-search" viewBox="0 0 28 28">
        <path fill="none" style="stroke: currentColor" stroke-linejoin="round" stroke-linecap="round" stroke-miterlimit="4" stroke-width="2.6667" d="M14.667 25.333c5.891 0 10.667-4.776 10.667-10.667s-4.776-10.667-10.667-10.667v0c-5.891 0-10.667 4.776-10.667 10.667s4.776 10.667 10.667 10.667v0zM28 28l-5.8-5.8"></path>
    </symbol>
    <symbol id="icon-google-icon_min" viewBox="0 0 32 32">
        <path d="M16.317 13.713v5.488h9.075c-0.369 2.356-2.744 6.9-9.075 6.9-5.462 0-9.918-4.524-9.918-10.1s4.456-10.1 9.918-10.1c3.106 0 5.188 1.326 6.376 2.468l4.344-4.182c-2.787-2.611-6.4-4.188-10.718-4.188-8.844 0-16.001 7.156-16.001 16.001s7.156 16.001 16.001 16.001c9.232 0 15.363-6.494 15.363-15.633 0-1.050-0.112-1.85-0.25-2.65l-15.115-0.005z"></path>
    </symbol>
    <symbol id="icon-log_out" viewBox="0 0 32 32">
        <path d="M22.288 7.491v-5.286c0-0.842-0.688-1.533-1.533-1.533h-18.902c-0.842 0-1.533 0.688-1.533 1.533v21.661c0 0.563 0.333 1.098 0.816 1.354l11.648 6.029c0.512 0.256 1.123-0.102 1.123-0.691v-5.875h6.845c0.842 0 1.533-0.688 1.533-1.533v-8.378h-3.066v6.080c0 0.435-0.333 0.765-0.765 0.765h-4.522v-13.002c0-0.563-0.333-1.098-0.816-1.354l-6.87-3.523h12.208c0.435 0 0.765 0.333 0.765 0.765v3.014h3.066v-0.026z"></path>
        <path d="M26.221 4.989l4.979 4.979c0.64 0.64 0.64 1.584 0 2.221l-4.979 4.982c-0.64 0.64-1.61 0.666-2.246 0.026-0.614-0.614-0.538-1.635 0.051-2.246l2.246-2.221h-8.71c-0.435 0-0.867-0.179-1.149-0.512-0.714-0.765-0.538-2.122 0.384-2.63 0.23-0.128 0.512-0.205 0.765-0.205h8.71s-2.221-2.221-2.246-2.221c-0.589-0.589-0.666-1.635-0.051-2.221 0.611-0.618 1.606-0.592 2.246 0.048z"></path>
    </symbol>

    <!-- svg від Олі -->
    <!-- 1. іконка гітхаб -->
    <symbol id="icon-github" viewBox="0 0 32 32">
        <path d="M16 0.396c-8.84 0-16 7.164-16 16 0 7.071 4.584 13.067 10.94 15.18 0.8 0.151 1.093-0.344 1.093-0.769 0-0.38-0.013-1.387-0.020-2.72-4.451 0.965-5.389-2.147-5.389-2.147-0.728-1.847-1.78-2.34-1.78-2.34-1.449-0.992 0.112-0.972 0.112-0.972 1.607 0.112 2.451 1.648 2.451 1.648 1.427 2.447 3.745 1.74 4.66 1.331 0.144-1.035 0.556-1.74 1.013-2.14-3.553-0.4-7.288-1.776-7.288-7.907 0-1.747 0.62-3.173 1.647-4.293-0.18-0.404-0.72-2.031 0.14-4.235 0 0 1.34-0.429 4.4 1.64 1.28-0.356 2.64-0.532 4-0.54 1.36 0.008 2.72 0.184 4 0.54 3.040-2.069 4.38-1.64 4.38-1.64 0.86 2.204 0.32 3.831 0.16 4.235 1.020 1.12 1.64 2.547 1.64 4.293 0 6.147-3.74 7.5-7.3 7.893 0.56 0.48 1.080 1.461 1.080 2.96 0 2.141-0.020 3.861-0.020 4.381 0 0.42 0.28 0.92 1.1 0.76 6.401-2.099 10.981-8.099 10.981-15.159 0-8.836-7.164-16-16-16z"></path>
    </symbol>

    <!-- 2. іконка лінкедін -->
    <symbol id="icon-linkedin" viewBox="0 0 32 32">
        <path d="M31.992 32H32V20.262c0-5.741-1.237-10.163-7.947-10.163-3.227 0-5.392 1.77-6.277 3.45h-.093v-2.914h-6.365v21.363h6.627V21.42c0-2.786.528-5.48 3.978-5.48 3.398 0 3.448 3.179 3.448 5.658V32h6.621zM.528 10.635h6.635V32H.528V10.635zM3.843 0A3.843 3.843 0 0 0 0 3.843c0 2.12 1.722 3.878 3.843 3.878 2.12 0 3.842-1.757 3.842-3.878S5.965.002 3.844 0z"/>
    </symbol>

    <!-- 3. іконка закриття (хрестик) -->
    <symbol id="icon-close" viewBox="0 0 32 32">
        <path d="M26.667 7.303l-1.97-1.97-7.808 7.808-7.808-7.808-1.97 1.97 7.808 7.808-7.808 7.808 1.97 1.97 7.808-7.808 7.808 7.808 1.97-1.97-7.808-7.808 7.808-7.808z"></path>
    </symbol>

    <!-- 4. іконка від Максима -->
    <symbol id="icon-favorite" viewBox="0 0 32 32">
        <path fill="#FF6B08" style="fill: var(--color1, #FF6B08)" d="M16 30.144l-2.24-2.218c-8.32-7.287-13.76-12.198-13.76-18.218 0-4.911 3.84-8.713 8.8-8.713 2.72 0 5.44 1.267 7.2 3.327 1.76-2.059 4.48-3.327 7.2-3.327 4.96 0 8.8 3.802 8.8 8.713 0 6.020-5.44 10.931-13.76 18.218l-2.24 2.218z"></path>
    </symbol>

    <symbol id="icon-facebook" viewBox="0 0 32 32">
    <path d="M21.329 5.313h2.921V.225C23.746.156 22.013 0 19.994 0c-4.212 0-7.097 2.649-7.097 7.519V12H8.249v5.688h4.648V32h5.699V17.689h4.46l.708-5.688h-5.169V8.082c.001-1.644.444-2.769 2.735-2.769z"/>
    </symbol>

    <!-- 4. іконка від Юри -->

    <symbol id="icon-btn-circle-up" viewBox="0 0 32 32">
        <path d="M0 16c0 8.837 7.163 16 16 16s16-7.163 16-16S24.837 0 16 0 0 7.163 0 16zm29 0c0 7.18-5.82 13-13 13S3 23.18 3 16 8.82 3 16 3s13 5.82 13 13z"/>
        <path d="m22.086 20.914 2.829-2.829-8.914-8.914-8.914 8.914 2.828 2.828 6.086-6.086z"/>
    </symbol>

  </defs>
</svg>

