<svg xmlns="http://www.w3.org/2000/svg" aria-hidden="true" style="position:absolute;width:0;height:0;overflow:hidden"><defs>
<symbol id="icon-logo" viewBox="0 0 32 32">
<path fill="none" style="stroke: currentColor" stroke-linejoin="round" stroke-linecap="round" stroke-miterlimit="4" stroke-width="2.6667" d="M26.427 2.667h-20.853c-1.605 0-2.907 1.301-2.907 2.907v0 20.853c0 1.605 1.301 2.907 2.907 2.907v0h20.853c1.605 0 2.907-1.301 2.907-2.907v0-20.853c0-1.605-1.301-2.907-2.907-2.907v0zM9.333 2.667v26.667M22.667 2.667v26.667M2.667 16h26.667M2.667 9.333h6.667M2.667 22.667h6.667M22.667 22.667h6.667M22.667 9.333h6.667"></path>
</symbol>
<symbol id="icon-search" viewBox="0 0 28 28">
<path fill="none" style="stroke: currentColor" stroke-linejoin="round" stroke-linecap="round" stroke-miterlimit="4" stroke-width="2.6667" d="M14.667 25.333c5.891 0 10.667-4.776 10.667-10.667s-4.776-10.667-10.667-10.667v0c-5.891 0-10.667 4.776-10.667 10.667s4.776 10.667 10.667 10.667v0zM28 28l-5.8-5.8"></path>
</symbol>
<symbol id="icon-google-icon_min" viewBox="0 0 32 32">
<path d="M16.317 13.713v5.488h9.075c-0.369 2.356-2.744 6.9-9.075 6.9-5.462 0-9.918-4.524-9.918-10.1s4.456-10.1 9.918-10.1c3.106 0 5.188 1.326 6.376 2.468l4.344-4.182c-2.787-2.611-6.4-4.188-10.718-4.188-8.844 0-16.001 7.156-16.001 16.001s7.156 16.001 16.001 16.001c9.232 0 15.363-6.494 15.363-15.633 0-1.050-0.112-1.85-0.25-2.65l-15.115-0.005z"></path>
</symbol>
<symbol id="icon-log_out" viewBox="0 0 32 32">
<path d="M22.288 7.491v-5.286c0-0.842-0.688-1.533-1.533-1.533h-18.902c-0.842 0-1.533 0.688-1.533 1.533v21.661c0 0.563 0.333 1.098 0.816 1.354l11.648 6.029c0.512 0.256 1.123-0.102 1.123-0.691v-5.875h6.845c0.842 0 1.533-0.688 1.533-1.533v-8.378h-3.066v6.080c0 0.435-0.333 0.765-0.765 0.765h-4.522v-13.002c0-0.563-0.333-1.098-0.816-1.354l-6.87-3.523h12.208c0.435 0 0.765 0.333 0.765 0.765v3.014h3.066v-0.026z"></path>
<path d="M26.221 4.989l4.979 4.979c0.64 0.64 0.64 1.584 0 2.221l-4.979 4.982c-0.64 0.64-1.61 0.666-2.246 0.026-0.614-0.614-0.538-1.635 0.051-2.246l2.246-2.221h-8.71c-0.435 0-0.867-0.179-1.149-0.512-0.714-0.765-0.538-2.122 0.384-2.63 0.23-0.128 0.512-0.205 0.765-0.205h8.71s-2.221-2.221-2.246-2.221c-0.589-0.589-0.666-1.635-0.051-2.221 0.611-0.618 1.606-0.592 2.246 0.048z"></path>
</symbol>
</defs></svg>