<svg xmlns="http://www.w3.org/2000/svg" aria-hidden="true" style="position:absolute;width:0;height:0;overflow:hidden"><defs>
<symbol id="icon-logo" viewBox="0 0 32 32">
<path fill="none" style="stroke: currentColor" stroke-linejoin="round" stroke-linecap="round" stroke-miterlimit="4" stroke-width="2.6667" d="M26.427 2.667h-20.853c-1.605 0-2.907 1.301-2.907 2.907v0 20.853c0 1.605 1.301 2.907 2.907 2.907v0h20.853c1.605 0 2.907-1.301 2.907-2.907v0-20.853c0-1.605-1.301-2.907-2.907-2.907v0zM9.333 2.667v26.667M22.667 2.667v26.667M2.667 16h26.667M2.667 9.333h6.667M2.667 22.667h6.667M22.667 22.667h6.667M22.667 9.333h6.667"></path>
</symbol>
<symbol id="icon-search" viewBox="0 0 28 28">
<path fill="none" style="stroke: currentColor" stroke-linejoin="round" stroke-linecap="round" stroke-miterlimit="4" stroke-width="2.6667" d="M14.667 25.333c5.891 0 10.667-4.776 10.667-10.667s-4.776-10.667-10.667-10.667v0c-5.891 0-10.667 4.776-10.667 10.667s4.776 10.667 10.667 10.667v0zM28 28l-5.8-5.8"></path>
</symbol>
</defs></svg>